<svg xmlns="http://www.w3.org/2000/svg" xmlns:xlink="http://www.w3.org/1999/xlink" contentStyleType="text/css" height="557px" preserveAspectRatio="none" style="width:3149px;height:557px;background:#FFFFFF;" version="1.1" viewBox="0 0 3149 557" width="3149px" zoomAndPan="magnify"><title>PaymentArch &#183; Deployment &#8212;&#8212; &#36825;&#20123; Container &#22914;&#20309;&#37096;&#32626;&#65288;&#21333;&#26426;&#21452;&#27169;&#24335; &#183; &#20108;&#36873;&#19968;&#65289;</title><defs/><g><text fill="#000000" font-family="Microsoft YaHei" font-size="14" font-weight="bold" lengthAdjust="spacing" textLength="550.3066" x="1291.8467" y="28.8135">PaymentArch &#183; Deployment &#8212;&#8212; &#36825;&#20123; Container &#22914;&#20309;&#37096;&#32626;&#65288;&#21333;&#26426;&#21452;&#27169;&#24335; &#183; &#20108;&#36873;&#19968;&#65289;</text><!--cluster HOST--><g id="cluster_HOST"><polygon fill="#FAFAF8" points="14,61.4775,24,51.4775,2429,51.4775,2429,421.4775,2419,431.4775,14,431.4775,14,61.4775" style="stroke:#B4B2A9;stroke-width:1;"/><line style="stroke:#B4B2A9;stroke-width:1;" x1="2419" x2="2429" y1="61.4775" y2="51.4775"/><line style="stroke:#B4B2A9;stroke-width:1;" x1="14" x2="2419" y1="61.4775" y2="61.4775"/><line style="stroke:#B4B2A9;stroke-width:1;" x1="2419" x2="2419" y1="61.4775" y2="431.4775"/><text fill="#000000" font-family="Microsoft YaHei" font-size="12" font-weight="bold" lengthAdjust="spacing" textLength="132.8203" x="1151.0898" y="81.1748">&#21333;&#26426;&#65288;&#24320;&#21457; / &#28436;&#31034;&#20027;&#26426;&#65289;</text></g><!--cluster FULL--><g id="cluster_FULL"><polygon fill="#FAFAF8" points="1312,100.4775,1322,90.4775,2421,90.4775,2421,396.9775,2411,406.9775,1312,406.9775,1312,100.4775" style="stroke:#B4B2A9;stroke-width:1;"/><line style="stroke:#B4B2A9;stroke-width:1;" x1="2411" x2="2421" y1="100.4775" y2="90.4775"/><line style="stroke:#B4B2A9;stroke-width:1;" x1="1312" x2="2411" y1="100.4775" y2="100.4775"/><line style="stroke:#B4B2A9;stroke-width:1;" x1="2411" x2="2411" y1="100.4775" y2="406.9775"/><text fill="#000000" font-family="Microsoft YaHei" font-size="12" font-weight="bold" lengthAdjust="spacing" textLength="338.3496" x="1693.3252" y="120.1748">&#27169;&#24335; A &#183; &#23481;&#22120;&#27169;&#24335;&#65288;&#25512;&#33616;&#65289;&#8212; docker compose --profile full</text></g><!--cluster APPS--><g id="cluster_APPS"><polygon fill="#FAFAF8" points="1690,139.4775,1700,129.4775,2413,129.4775,2413,388.9775,2403,398.9775,1690,398.9775,1690,139.4775" style="stroke:#B4B2A9;stroke-width:1;"/><line style="stroke:#B4B2A9;stroke-width:1;" x1="2403" x2="2413" y1="139.4775" y2="129.4775"/><line style="stroke:#B4B2A9;stroke-width:1;" x1="1690" x2="2403" y1="139.4775" y2="139.4775"/><line style="stroke:#B4B2A9;stroke-width:1;" x1="2403" x2="2403" y1="139.4775" y2="398.9775"/><text fill="#000000" font-family="Microsoft YaHei" font-size="12" font-weight="bold" lengthAdjust="spacing" textLength="280.6172" x="1907.1914" y="159.1748">&#24212;&#29992;&#23481;&#22120; &#215; 10&#65288;9 &#20010;&#19994;&#21153;&#26381;&#21153; + 1 &#20010; Demo &#36827;&#31243;&#65289;</text></g><!--cluster HOSTM--><g id="cluster_HOSTM"><polygon fill="#FAFAF8" points="635,132.4775,645,122.4775,1085,122.4775,1085,216.4775,1075,226.4775,635,226.4775,635,132.4775" style="stroke:#B4B2A9;stroke-width:1;"/><line style="stroke:#B4B2A9;stroke-width:1;" x1="1075" x2="1085" y1="132.4775" y2="122.4775"/><line style="stroke:#B4B2A9;stroke-width:1;" x1="635" x2="1075" y1="132.4775" y2="132.4775"/><line style="stroke:#B4B2A9;stroke-width:1;" x1="1075" x2="1075" y1="132.4775" y2="226.4775"/><text fill="#000000" font-family="Microsoft YaHei" font-size="12" font-weight="bold" lengthAdjust="spacing" textLength="366.4512" x="672.7744" y="152.1748">&#27169;&#24335; B &#183; &#23487;&#20027;&#27169;&#24335;&#65288;&#20445;&#30041;&#65292;&#29992;&#20110;&#35843;&#35797;&#65289;&#8212; ./mvnw spring-boot:run</text></g><!--cluster INFRA--><g id="cluster_INFRA"><polygon fill="#FAFAF8" points="22,294.4775,32,284.4775,1304,284.4775,1304,413.4775,1294,423.4775,22,423.4775,22,294.4775" style="stroke:#B4B2A9;stroke-width:1;"/><line style="stroke:#B4B2A9;stroke-width:1;" x1="1294" x2="1304" y1="294.4775" y2="284.4775"/><line style="stroke:#B4B2A9;stroke-width:1;" x1="22" x2="1294" y1="294.4775" y2="294.4775"/><line style="stroke:#B4B2A9;stroke-width:1;" x1="1294" x2="1294" y1="294.4775" y2="423.4775"/><text fill="#000000" font-family="Microsoft YaHei" font-size="12" font-weight="bold" lengthAdjust="spacing" textLength="320.8242" x="498.5879" y="314.1748">&#22522;&#30784;&#35774;&#26045;&#23481;&#22120;&#65288;&#20004;&#31181;&#27169;&#24335;&#20849;&#29992; &#183; compose --profile infra&#65289;</text></g><!--entity ALI--><g id="elem_ALI"><rect fill="#E8E8E8" height="57.0361" rx="5" ry="5" style="stroke:#181818;stroke-width:1;" width="149" x="2454.5" y="340.9775"/><text fill="#000000" font-family="Microsoft YaHei" font-size="11" lengthAdjust="spacing" textLength="121" x="2468.5" y="366.6167">&#25903;&#20184;&#23453;&#24320;&#25918;&#24179;&#21488;&#65288;&#27801;&#31665;&#65289;</text><text fill="#000000" font-family="Microsoft YaHei" font-size="11" lengthAdjust="spacing" textLength="90.46" x="2468.5" y="381.1348">[External System]</text></g><g id="elem_GMN29"><path d="M2437,151.4775 L2437,228.1084 A5,5 0 0 0 2442,233.1084 L2767.7378,233.1084 A5,5 0 0 0 2772.7378,228.1084 L2772.7378,156.4775 L2762.7378,146.4775 L2442,146.4775 A5,5 0 0 0 2437,151.4775 " fill="#FEFFDD" style="stroke:#181818;stroke-width:0.5;"/><path d="M2762.7378,146.4775 L2762.7378,153.9775 A2.5,2.5 0 0 0 2765.2378,156.4775 L2772.7378,156.4775 L2762.7378,146.4775 " fill="#FEFFDD" style="stroke:#181818;stroke-width:1;"/><text fill="#000000" font-family="Microsoft YaHei" font-size="13" font-weight="bold" lengthAdjust="spacing" textLength="26" x="2447" y="169.2329">&#20837;&#21475;</text><text fill="#000000" font-family="Microsoft YaHei" font-size="13" lengthAdjust="spacing" textLength="202.8267" x="2473" y="169.2329">&#65306;deployment/start-container.sh</text><text fill="#000000" font-family="Microsoft YaHei" font-size="13" font-weight="bold" lengthAdjust="spacing" textLength="26" x="2447" y="186.3906">&#26500;&#24314;</text><text fill="#000000" font-family="Microsoft YaHei" font-size="13" lengthAdjust="spacing" textLength="280.7378" x="2473" y="186.3906">&#65306;deployment/build-images.sh&#65288;jar &#8594; &#38236;&#20687;&#65289;</text><text fill="#000000" font-family="Microsoft YaHei" font-size="13" lengthAdjust="spacing" textLength="216.7534" x="2447" y="203.5483">depends_on nacos: service_healthy</text><text fill="#000000" font-family="Microsoft YaHei" font-size="13" lengthAdjust="spacing" textLength="165.3057" x="2447" y="220.7061">&#31471;&#21475; 8081-8091 &#19982;&#23487;&#20027;&#27169;&#24335;</text><text fill="#000000" font-family="Microsoft YaHei" font-size="13" font-weight="bold" lengthAdjust="spacing" textLength="26" x="2612.3057" y="220.7061">&#20114;&#26021;</text></g><g id="elem_GMN32"><path d="M2791,160.4775 L2791,219.9507 A5,5 0 0 0 2796,224.9507 L3137.6958,224.9507 A5,5 0 0 0 3142.6958,219.9507 L3142.6958,165.4775 L3132.6958,155.4775 L2796,155.4775 A5,5 0 0 0 2791,160.4775 " fill="#FEFFDD" style="stroke:#181818;stroke-width:0.5;"/><path d="M3132.6958,155.4775 L3132.6958,162.9775 A2.5,2.5 0 0 0 3135.1958,165.4775 L3142.6958,165.4775 L3132.6958,155.4775 " fill="#FEFFDD" style="stroke:#181818;stroke-width:1;"/><text fill="#000000" font-family="Microsoft YaHei" font-size="13" font-weight="bold" lengthAdjust="spacing" textLength="26" x="2801" y="178.2329">&#20837;&#21475;</text><text fill="#000000" font-family="Microsoft YaHei" font-size="13" lengthAdjust="spacing" textLength="158.2979" x="2827" y="178.2329">&#65306;deployment/start-all.sh</text><text fill="#000000" font-family="Microsoft YaHei" font-size="13" lengthAdjust="spacing" textLength="240.0112" x="2801" y="195.3906">&#26085;&#24535;&#33853; deployment/logs/&lt;service&gt;.log</text><text fill="#000000" font-family="Microsoft YaHei" font-size="13" lengthAdjust="spacing" textLength="322.6958" x="2801" y="212.5483">&#38656; JDK 17+&#65288;spring-boot-maven-plugin RunMojo&#65289;</text></g><!--entity IMG--><g id="elem_IMG"><rect fill="#FFFFFF" height="57.0361" rx="5" ry="5" style="stroke:#181818;stroke-width:1;" width="325.1611" x="1354.5" y="161.4775"/><text fill="#000000" font-family="Microsoft YaHei" font-size="11" lengthAdjust="spacing" textLength="217.6582" x="1368.5" y="187.1167">&#38236;&#20687;&#65306;&#23487;&#20027;&#25171; fat jar &#8594; Dockerfile &#21482; COPY</text><text fill="#000000" font-family="Microsoft YaHei" font-size="11" lengthAdjust="spacing" textLength="297.1611" x="1368.5" y="201.6348">&#22522;&#30784;&#38236;&#20687; eclipse-temurin:21-jre-jammy&#65288;ADR-0070 D3&#65289;</text></g><!--entity ROW1--><g id="elem_ROW1"><rect fill="#DCE6F2" height="42.5181" rx="5" ry="5" style="stroke:#181818;stroke-width:1;" width="335.4521" x="1732.5" y="168.4775"/><text fill="#000000" font-family="Microsoft YaHei" font-size="11" lengthAdjust="spacing" textLength="307.4521" x="1746.5" y="194.1167">8081 merchant &#183; 8082 catalog &#183; 8083 order &#183; 8084 payment</text></g><!--entity ROW2--><g id="elem_ROW2"><rect fill="#DCE6F2" height="42.5181" rx="5" ry="5" style="stroke:#181818;stroke-width:1;" width="318.6675" x="2085.5" y="168.4775"/><text fill="#000000" font-family="Microsoft YaHei" font-size="11" lengthAdjust="spacing" textLength="290.6675" x="2099.5" y="194.1167">8086 fulfillment &#183; 8087 entitlement &#183; 8088 reconciliation</text></g><!--entity ROW3--><g id="elem_ROW3"><rect fill="#E8E8E8" height="42.5181" rx="5" ry="5" style="stroke:#181818;stroke-width:1;" width="378.582" x="1710.5" y="347.9775"/><text fill="#000000" font-family="Microsoft YaHei" font-size="11" lengthAdjust="spacing" textLength="350.582" x="1724.5" y="373.6167">8089 settlement &#183; 8090 ledger &#183; 8091 mock-channel-web&#65288;Demo&#65289;</text></g><!--entity HAPP--><g id="elem_HAPP"><rect fill="#FFFFFF" height="57.0361" rx="5" ry="5" style="stroke:#181818;stroke-width:1;" width="301.2329" x="768.5" y="161.4775"/><text fill="#000000" font-family="Microsoft YaHei" font-size="11" lengthAdjust="spacing" textLength="273.2329" x="782.5" y="187.1167">8081~8090 &#19994;&#21153;&#26381;&#21153; &#215; 9 + 8091 mock-channel-web</text><text fill="#000000" font-family="Microsoft YaHei" font-size="11" lengthAdjust="spacing" textLength="131.1245" x="782.5" y="201.6348">IDE &#26029;&#28857;&#35843;&#35797; / &#25913;&#30721;&#28909;&#37325;&#21551;</text></g><!--entity DB--><g id="elem_DB"><path d="M555.5,342.4775 C555.5,332.4775 667.8315,332.4775 667.8315,332.4775 C667.8315,332.4775 780.1631,332.4775 780.1631,342.4775 L780.1631,396.4326 C780.1631,406.4326 667.8315,406.4326 667.8315,406.4326 C667.8315,406.4326 555.5,406.4326 555.5,396.4326 L555.5,342.4775 " fill="#D7E9F5" style="stroke:#5B7DA8;stroke-width:1;"/><path d="M555.5,342.4775 C555.5,352.4775 667.8315,352.4775 667.8315,352.4775 C667.8315,352.4775 780.1631,352.4775 780.1631,342.4775 " fill="none" style="stroke:#5B7DA8;stroke-width:1;"/><text fill="#000000" font-family="Microsoft YaHei" font-size="14" lengthAdjust="spacing" textLength="116.1904" x="569.5" y="375.291">MySQL 8.0 &#183; 3306</text><text fill="#000000" font-family="Microsoft YaHei" font-size="14" lengthAdjust="spacing" textLength="196.6631" x="569.5" y="393.7686">&#27599;&#26381;&#21153;&#29420;&#21344; Schema&#65292;&#21367;&#25345;&#20037;&#21270;</text></g><!--entity REDIS--><g id="elem_REDIS"><path d="M1040,333.4775 C1040,323.4775 1167.9756,323.4775 1167.9756,323.4775 C1167.9756,323.4775 1295.9512,323.4775 1295.9512,333.4775 L1295.9512,405.9102 C1295.9512,415.9102 1167.9756,415.9102 1167.9756,415.9102 C1167.9756,415.9102 1040,415.9102 1040,405.9102 L1040,333.4775 " fill="#D7E9F5" style="stroke:#5B7DA8;stroke-width:1;"/><path d="M1040,333.4775 C1040,343.4775 1167.9756,343.4775 1167.9756,343.4775 C1167.9756,343.4775 1295.9512,343.4775 1295.9512,333.4775 " fill="none" style="stroke:#5B7DA8;stroke-width:1;"/><text fill="#000000" font-family="Microsoft YaHei" font-size="14" lengthAdjust="spacing" textLength="93.0918" x="1054" y="366.291">Redis 7 &#183; 6379</text><text fill="#000000" font-family="Microsoft YaHei" font-size="14" lengthAdjust="spacing" textLength="158.6689" x="1054" y="384.7686">&#38750;&#25968;&#25454;&#28304; + &#20107;&#21153;&#28040;&#24687;&#36890;&#36947;</text><text fill="#000000" font-family="Microsoft YaHei" font-size="14" lengthAdjust="spacing" textLength="227.9512" x="1054" y="403.2461">&#65288;AOF + noeviction&#65292;ADR-0074&#65289;</text></g><!--entity NACOS--><g id="elem_NACOS"><rect fill="#D7E9F5" height="57.0361" rx="5" ry="5" style="stroke:#181818;stroke-width:1;" width="202.8613" x="334.5" y="340.9775"/><text fill="#000000" font-family="Microsoft YaHei" font-size="11" lengthAdjust="spacing" textLength="156.4922" x="348.5" y="366.6167">Nacos 3.0.3 &#183; 8848/9848/9849</text><text fill="#000000" font-family="Microsoft YaHei" font-size="11" lengthAdjust="spacing" textLength="174.8613" x="348.5" y="381.1348">&#27880;&#20876;&#19982;&#21457;&#29616;&#65288;&#30828;&#20381;&#36182;&#65292;ADR-0059&#65289;</text></g><!--entity PROM--><g id="elem_PROM"><rect fill="#D7E9F5" height="57.0361" rx="5" ry="5" style="stroke:#181818;stroke-width:1;" width="222.6592" x="798.5" y="340.9775"/><text fill="#000000" font-family="Microsoft YaHei" font-size="11" lengthAdjust="spacing" textLength="98.4146" x="812.5" y="366.6167">Prometheus &#183; 9090</text><text fill="#000000" font-family="Microsoft YaHei" font-size="11" lengthAdjust="spacing" textLength="194.6592" x="812.5" y="381.1348">&#25235;&#21462; 10 &#20010;&#36827;&#31243; /actuator/prometheus</text></g><!--entity GRAF--><g id="elem_GRAF"><rect fill="#D7E9F5" height="57.0361" rx="5" ry="5" style="stroke:#181818;stroke-width:1;" width="104.1729" x="212" y="340.9775"/><text fill="#000000" font-family="Microsoft YaHei" font-size="11" lengthAdjust="spacing" textLength="76.1729" x="226" y="366.6167">Grafana &#183; 3000</text><text fill="#000000" font-family="Microsoft YaHei" font-size="11" lengthAdjust="spacing" textLength="66" x="226" y="381.1348">&#19994;&#21153;&#25351;&#26631;&#30475;&#26495;</text></g><!--entity LOKI--><g id="elem_LOKI"><rect fill="#D7E9F5" height="57.0361" rx="5" ry="5" style="stroke:#181818;stroke-width:1;" width="162.9058" x="30.5" y="340.9775"/><text fill="#000000" font-family="Microsoft YaHei" font-size="11" lengthAdjust="spacing" textLength="115.4463" x="44.5" y="366.6167">Loki + Promtail &#183; 3100</text><text fill="#000000" font-family="Microsoft YaHei" font-size="11" lengthAdjust="spacing" textLength="134.9058" x="44.5" y="381.1348">&#26085;&#24535;&#32858;&#21512;&#65288;&#20849;&#29992; ./logs &#21367;&#65289;</text></g><polygon fill="#6B6B6B" points="707.2823,332.3303,716.7917,329.767,711.1654,329.1804,711.7519,323.5541,707.2823,332.3303" style="stroke:#6B6B6B;stroke-width:1;"/><path d="M1689.5014,236.1224 C1689.299,236.2151 1689.0927,236.3073 1688.8826,236.3989 C1688.4624,236.5822 1688.0267,236.7632 1687.5759,236.9419 C1686.6743,237.2994 1685.7122,237.648 1684.6916,237.9879 C1680.6091,239.3475 1675.5907,240.5676 1669.7675,241.6622 C1658.1211,243.8514 1643.2558,245.5381 1626.2209,246.8323 C1592.1513,249.4208 1549.4039,250.4392 1506.3752,250.7668 C1420.3178,251.422 1333.1353,249.3141 1312,251.4775 C1241.2737,258.7172 1224.8118,270.1286 1154,276.4775 C1113.5968,280.1001 827.5772,271.9339 789,284.4775 C758.8439,294.283 734.1723,310.5176 711.942,328.5505 " fill="none" style="stroke:#6B6B6B;stroke-width:1;"/><text fill="#000000" font-family="Microsoft YaHei" font-size="10" lengthAdjust="spacing" textLength="56.3232" x="1318" y="268.0586">JDBC &#183; 3306</text><polygon fill="#6B6B6B" points="1296.3463,355.728,1305.7921,358.5165,1301.3033,355.074,1304.7458,350.5852,1296.3463,355.728" style="stroke:#6B6B6B;stroke-width:1;"/><path d="M1689.9003,238.7938 C1689.8216,238.8914 1689.7431,238.9887 1689.6646,239.0856 C1689.5077,239.2794 1689.3512,239.4718 1689.1949,239.6626 C1688.8825,240.0443 1688.5715,240.4202 1688.2619,240.7903 C1687.6425,241.5305 1687.0283,242.2479 1686.4185,242.9435 C1683.9794,245.7259 1681.6103,248.1609 1679.2573,250.3248 C1674.5514,254.6525 1669.91,257.8958 1664.9018,260.6651 C1654.8854,266.2037 1643.4017,269.8465 1627,276.4775 C1520.0064,319.7339 1396.433,342.5244 1302.2947,354.9432 " fill="none" style="stroke:#6B6B6B;stroke-width:1;"/><text fill="#000000" font-family="Microsoft YaHei" font-size="10" lengthAdjust="spacing" textLength="119.0381" x="1684" y="268.0586">Redis &#21327;&#35758;&#65288;&#24130;&#31561; / &#28040;&#24687;&#65289;</text><polygon fill="#6B6B6B" points="462.0173,340.9584,471.2838,337.622,465.6283,337.5,465.7503,331.8445,462.0173,340.9584" style="stroke:#6B6B6B;stroke-width:1;"/><path d="M1689.3546,235.7159 C1689.0587,235.8169 1688.7523,235.9172 1688.4355,236.0167 C1685.901,236.8125 1682.7017,237.5587 1678.8816,238.2582 C1671.2414,239.6572 1661.118,240.8691 1648.864,241.9167 C1624.3559,244.0118 1591.3255,245.4494 1552.5937,246.4109 C1475.1301,248.334 1374.8609,248.3527 1274.3539,247.918 C1073.3398,247.0486 871.3745,244.3657 849,251.4775 C830.0861,257.4894 830.8873,270.3828 812,276.4775 C755.7198,294.6385 601.7304,264.6935 546,284.4775 C513.3924,296.0531 486.9968,317.0342 466.3505,336.8083 " fill="none" style="stroke:#6B6B6B;stroke-width:1;"/><text fill="#000000" font-family="Microsoft YaHei" font-size="10" lengthAdjust="spacing" textLength="50" x="855" y="268.0586">&#27880;&#20876;&#19982;&#21457;&#29616;</text><polygon fill="#6B6B6B" points="663.7335,332.265,666.7549,322.891,663.2024,327.2933,658.8001,323.7408,663.7335,332.265" style="stroke:#6B6B6B;stroke-width:1;"/><path d="M657.7345,226.6128 C657.7349,226.7106 657.7353,226.8085 657.7357,226.9065 C657.7374,227.2985 657.7392,227.6924 657.7412,228.0879 C657.7452,228.8791 657.7498,229.6771 657.7552,230.4814 C657.7659,232.09 657.7795,233.7237 657.7963,235.3776 C657.9307,248.6093 658.2708,263.1372 659,276.4775 C660.0073,294.9058 661.2884,309.3767 663.0962,326.2989 " fill="none" style="stroke:#6B6B6B;stroke-width:1;"/><text fill="#000000" font-family="Microsoft YaHei" font-size="10" lengthAdjust="spacing" textLength="56.3232" x="665" y="268.0586">JDBC &#183; 3306</text><polygon fill="#6B6B6B" points="470.3983,340.9744,479.9256,338.4782,474.3035,337.852,474.9298,332.2299,470.3983,340.9744" style="stroke:#6B6B6B;stroke-width:1;"/><path d="M634.9773,209.3853 C634.6248,209.6672 634.269,209.9517 633.9099,210.2387 C633.1918,210.8129 632.4607,211.3974 631.7172,211.992 C630.23,213.181 628.6928,214.4101 627.1091,215.6764 C623.9415,218.209 620.5878,220.8905 617.0757,223.6986 C603.0272,234.931 586.4449,248.1893 569.113,262.0471 C534.4492,289.7625 501.4729,316.1287 475.0846,337.2275 " fill="none" style="stroke:#6B6B6B;stroke-width:1;"/><text fill="#000000" font-family="Microsoft YaHei" font-size="10" lengthAdjust="spacing" textLength="50" x="586" y="268.0586">&#27880;&#20876;&#19982;&#21457;&#29616;</text><polygon fill="#6B6B6B" points="462.4968,340.679,471.776,337.3781,466.121,337.2344,466.2647,331.5794,462.4968,340.679" style="stroke:#6B6B6B;stroke-width:1;"/><path d="M816.8914,218.5707 C793.8633,227.1837 770.2601,238.0466 750,251.4775 C737.416,259.8198 740.6881,270.1068 727,276.4775 C690.4983,293.4663 583.8457,270.7412 546,284.4775 C513.7007,296.2008 487.5119,316.9037 466.8458,336.5455 " fill="none" style="stroke:#6B6B6B;stroke-width:1;"/><text fill="#000000" font-family="Microsoft YaHei" font-size="10" lengthAdjust="spacing" textLength="50" x="756" y="268.0586">&#27880;&#20876;&#19982;&#21457;&#29616;</text><polygon fill="#6B6B6B" points="2537.2773,340.8116,2543.1816,332.9287,2538.3911,335.9372,2535.3826,331.1467,2537.2773,340.8116" style="stroke:#6B6B6B;stroke-width:1;"/><path d="M2413.9496,239.5559 C2415.0224,239.5822 2416.0892,239.6092 2417.15,239.6368 C2425.6364,239.8575 2433.7368,240.1177 2441.4086,240.4215 C2456.7522,241.0291 2470.3812,241.811 2481.9547,242.7999 C2505.1016,244.7777 2520.0261,247.5833 2524,251.4775 C2547.1609,274.1744 2544.7387,308.1575 2538.6138,334.9623 " fill="none" style="stroke:#6B6B6B;stroke-width:1;"/><text fill="#000000" font-family="Microsoft YaHei" font-size="10" lengthAdjust="spacing" textLength="64.6143" x="2543" y="268.0586">HTTPS &#183; RSA2</text><polygon fill="#6B6B6B" points="2501.8897,340.7746,2498.0145,331.7202,2498.225,337.3731,2492.5721,337.5837,2501.8897,340.7746" style="stroke:#6B6B6B;stroke-width:1;"/><path d="M1069.7846,210.0502 C1141.7837,218.4914 1229.2296,227.7784 1308,233.4775 C1554.0617,251.2805 2185.1712,200.1052 2417,284.4775 C2449.6611,296.3643 2476.3831,317.0998 2497.4921,336.6928 " fill="none" style="stroke:#6B6B6B;stroke-width:1;"/><text fill="#000000" font-family="Microsoft YaHei" font-size="10" lengthAdjust="spacing" textLength="64.6143" x="2394" y="268.0586">HTTPS &#183; RSA2</text><polygon fill="#6B6B6B" points="1689.5968,236.6108,1679.8392,237.9484,1685.3459,239.2432,1684.0511,244.7499,1689.5968,236.6108" style="stroke:#6B6B6B;stroke-width:1;"/><path d="M939.1086,340.8576 C962.0761,321.0307 995.9843,295.8776 1031,284.4775 C1068.305,272.3322 1345.2155,282.3884 1384,276.4775 C1423.7722,270.4162 1431.4199,258.6873 1471,251.4775 C1495.4559,247.0228 1541.6048,250.4159 1586.4402,250.9762 C1608.8579,251.2563 1630.9473,250.8283 1649.8325,248.3569 C1659.2751,247.1211 1667.9167,245.3746 1675.3978,242.9504 C1679.1383,241.7382 1682.5887,240.3567 1685.7041,238.7848 C1686.4829,238.3919 1687.2408,237.987 1687.9771,237.5699 C1688.3452,237.3614 1688.7079,237.1498 1689.0651,236.9351 C1689.2437,236.8278 1684.3199,239.8786 1684.4957,239.7697 " fill="none" style="stroke:#6B6B6B;stroke-width:1;"/><text fill="#000000" font-family="Microsoft YaHei" font-size="10" lengthAdjust="spacing" textLength="140" x="1477" y="268.0586">&#25235;&#21462;&#25351;&#26631;&#65288;&#23481;&#22120;&#27169;&#24335;&#25353;&#26381;&#21153;&#21517;&#65289;</text><polygon fill="#6B6B6B" points="917.5938,218.7119,913.1431,227.4978,917.3406,223.7055,921.1329,227.9029,917.5938,218.7119" style="stroke:#6B6B6B;stroke-width:1;"/><path d="M911.3964,340.9379 C913.0828,307.6787 915.5991,258.0505 917.2899,224.7042 " fill="none" style="stroke:#6B6B6B;stroke-width:1;"/><text fill="#000000" font-family="Microsoft YaHei" font-size="10" lengthAdjust="spacing" textLength="222.8076" x="922" y="268.0586">&#25235;&#21462;&#25351;&#26631;&#65288;&#23487;&#20027;&#27169;&#24335; host.docker.internal:808x&#65289;</text><path d="M1320.2728,90.1641 C1320.3123,89.9595 1320.3524,89.7552 1320.393,89.5512 C1320.4742,89.143 1320.5576,88.736 1320.6432,88.33 C1320.8143,87.5181 1320.9942,86.7106 1321.1831,85.9079 C1322.6943,79.4863 1324.7824,73.3743 1327.5822,67.7943 C1333.1817,56.6342 1341.6281,47.6021 1354,42.4775 C1381.0491,31.2734 2380.2209,33.2304 2408,42.4775 C2469.2134,62.8544 2526.7535,110.5105 2563.6565,146.1754 " fill="none" style="stroke:#6B6B6B;stroke-width:1;stroke-dasharray:7.0,7.0;"/><path d="M687.7515,122.4602 C687.871,122.2517 687.9909,122.0432 688.1111,121.8345 C688.3516,121.4172 688.5936,120.9996 688.8371,120.5816 C689.3241,119.7457 689.817,118.9085 690.3159,118.0704 C692.3115,114.7179 694.4025,111.3513 696.5898,107.9956 C714.0883,81.1502 737.7492,55.0078 768,42.4775 C793.7275,31.8209 2746.6109,33.5848 2773,42.4775 C2838.9556,64.7036 2900.2518,119.2694 2935.6432,155.4361 " fill="none" style="stroke:#6B6B6B;stroke-width:1;stroke-dasharray:7.0,7.0;"/><rect fill="#DDDDDD" height="91.9102" id="_legend" rx="5" ry="5" style="stroke:#000000;stroke-width:1;" width="836.3164" x="2285.6836" y="445.4775"/><text fill="#000000" font-family="Microsoft YaHei" font-size="14" font-weight="bold" lengthAdjust="spacing" textLength="51.6318" x="2294.6836" y="469.291">Legend</text><text fill="#000000" font-family="Microsoft YaHei" font-size="14" lengthAdjust="spacing" textLength="818.3164" x="2294.6836" y="487.7686">&#33410;&#28857; = &#37096;&#32626;&#33410;&#28857; &#65372; &#34013;&#28784; = &#24212;&#29992;&#23481;&#22120;&#65288;&#19994;&#21153;&#26381;&#21153;&#65289;&#65372; &#28784; = Demo &#23481;&#22120; &#65372; &#27973;&#34013; = &#22522;&#30784;&#35774;&#26045;&#23481;&#22120; &#65372; Database = &#26631;&#20934; Database &#24418;&#29366;</text><text fill="#000000" font-family="Microsoft YaHei" font-size="14" lengthAdjust="spacing" textLength="56" x="2294.6836" y="506.2461">&#20004;&#31181;&#27169;&#24335;</text><text fill="#000000" font-family="Microsoft YaHei" font-size="14" font-weight="bold" lengthAdjust="spacing" textLength="137.9355" x="2350.6836" y="506.2461">&#20849;&#29992;&#21516;&#19968;&#20221; compose</text><text fill="#000000" font-family="Microsoft YaHei" font-size="14" lengthAdjust="spacing" textLength="18.1289" x="2488.6191" y="506.2461">&#65306;`</text><text fill="#000000" font-family="Microsoft YaHei" font-size="14" lengthAdjust="spacing" text-decoration="line-through" textLength="272.2686" x="2506.748" y="506.2461">profile infra` &#21482;&#36215;&#20013;&#38388;&#20214;&#65288;&#23487;&#20027;&#27169;&#24335;&#29992;&#65289;&#12289;`</text><text fill="#000000" font-family="Microsoft YaHei" font-size="14" lengthAdjust="spacing" textLength="216.7813" x="2779.0166" y="506.2461">profile full` &#36215;&#20840;&#26632;&#65288;&#23481;&#22120;&#27169;&#24335;&#29992;&#65289;</text><text fill="#000000" font-family="Microsoft YaHei" font-size="14" lengthAdjust="spacing" textLength="86.0918" x="2294.6836" y="524.7236">&#9733; &#24212;&#29992;&#36827;&#31243; =</text><text fill="#000000" font-family="Microsoft YaHei" font-size="14" font-weight="bold" lengthAdjust="spacing" textLength="17.2676" x="2384.918" y="524.7236">10</text><text fill="#000000" font-family="Microsoft YaHei" font-size="14" lengthAdjust="spacing" textLength="578.3545" x="2402.1855" y="524.7236">&#65288;9 &#20010;&#19994;&#21153;&#26381;&#21153; + 1 &#20010; Demo &#36827;&#31243; mock-channel-web&#65289;&#8212;&#8212;&#35265; technical-solution.md &#167;1</text><!--SRC=[ZLTjJnjN5lxkNt6MVgX4D7u10ZPg8naC2Iq4rYPQLQLgBfx1dZ2UiMR6fEmgArvAY8CTQ7b9Gw0btQQmtG1fsYHW84ZjFqddnNpYB-ovTyRsu49sCR8yzzxpdBVdd7FdVHWWunb1rgDgCWs_lOPW6692LbBOukdXlSwMCyzvt_kGwByHx-o2_cuOZDyOl0OVWhNs3FpPN4OwFNniBXJinplcqJ92SNnLrA-DfS3OArbxBwpl5etIfft_z-bXmVvnqjh-tihFcQ-VseShvJTV_J4nXJgSOwU7gxV8607k5b6XXXLGSdesfmTqHP6qG5OYieww_VGGfrCzd08Ve17MngnZoXNWbQGM8EYZg0j9FQSA0LuaAPLajC1PCwaNgB-y-MMvC8twcQ2c4vadAgzLfBZAYZ_3usdZpRfLtC7J29wMnIIHE4sHShgeo7W0VjjinS1ux8ztHMDzNRY5oz5Od0i6su8GW63mSWHNjAoGX61Jg-ylMPMaCWGaCeuUWvOHK2ln-NHHbuJwnDMo16ydbl0VoiUFZD9Zw5HadOYoe8BvuvHnj7molMKVlS3KciLbQwrapXUihIVcuJm5CKg5aucyiJT1C-tJHaKvIz1TqDA4LswBSWf6YAG9dXrU624vIUz69TT9He26FZ6fAfeoeiCdv9eWDdZEHbLLkTsfI8eAxxLsq4_zvc1QJ8xAWgP1g7wBQaY8VnSW5FHi3H2UfsQrUDPK9IVpIKMbBkDXpuwiy0BymmVGGPAZANREDQSxYfymtL5KNb3TrOwMZgPefBhgjGwWPb1JvKaVnxmCAnBlk-Er1nb7v9JagdudLEYC94zqCaoq2soEjNL5kY_NstoveoqM3P-hw8xFnoBGu6IUKk1mmfp_2gbd7IxPFvIClGEsdcy0ei6r_iGWQaOeHygbIPGInTpPDnzjEIk8OptOAXSNK93o3ajc54EVL39P1MtdkAogZ8Ze_aXEaXXozutUNkPJ1TeiBTbBMmue_FuGquQW4UmNFnbxg-Rz9zPQ4R_X4eJe6d8zeo2z7zjRSnLZemC32HSIF15l20V38SW8M2JO9QZbkD04IGoifAJSvsPWeNAVMY3hL1R3ZVV_BOIXxkngxMuw5xsLkeNkIQpq78WsmD-qI3rhOIgdo4bH4Wbj31NqfdUYHq0Jz3D0aI180f-gc1j1xp3U7FLF5YJkjZ2CeQC1gaG6TJJ3UrrX-c4wxlZgz9mihvdJcCPLS-UOKY2_Y6Mk0-sdR-z-3J6MJvP1S_udwEmV-6H8DhyhsKyc74aGafAOrGHE5p8vLPJRcqBSBLN0hft9ZACrrHONQwuOrTDt5OkE_VceHVKawt18niofaCmuNhUN7z6XiRHbb1wKdq-NTvTTpla3cJ7vDcXPL9_YXXL5RrTpSfN6VIurweZnJnRECnH3yaMGP-S6TaZkYNM1jR9jJ-qxscdbBEtR6vFszFR9RD5Ss7LK8XlFTyy9MtddZRLovD2TEhRtWxrPTFmqPtv6zwZtVwuVKHvHIJM2rxlZKTUjQfzew1jF_BKNmluWHMXk3hOEoTRklEERFVVCB6v08faMCWXJC8klhSAaiJzZ5bOOPAoZ3YqkyA86RHIhjRajCYIVh7zhBJ_7MMUL5Z1AHccEHkxLFMjozsHYzMHoSKYc-SQhmILqM1WJavJggCkbG4kLb5sndaHzIgwJfA91ip_eRsRa3hU40n7t2vLRlsoPTml6tWDiMVQ3vwZ8Vl8CHs_vvKfL0nsWZeRhqSx-XAT9dj4qe2euJDD2JgEA8iW2XB-_QCwlOEkXBSPfBX0WU5aWkg86ibK9XZuGx- -x2FogIaPmJhCC18E8x1AiC4il96jprlenmxWQZtPVXD6hZ8eOGsed3c-9OOKeblNmgNdyi3ovQYxSemtSeOi_WDrC0ynenVtU_ezxFE1tQFFtu5jBkyR1D-REEau0Q-cDkV-BEKyZQhruPE_yZ213ygTTN-Y2AXC94kCQLlPdJf_jxQas4nzhkXnt1Pa3xV1HhAEpGhlQ5iiqxZfSCelpvPqTQlZ-bBsTf_N3s4Fl6rKH9tNjK9TmdrF9v-khxLqeJOloNGUg-gcFxN1jS12V4J-UY3RLfC_RP6nWcnG2aHcLd8HJNpt3qYhadMeq5uhKwQeeKt2EQAq5GbhHTBypNVsYx2Id7VlO5-os9Ykw0AgOIkkWZB0HYtblR3Hddfhp_sfif7VPsWqKxw-gpYKhLqE_bcQ7hM-_D0zAzOU7SwB4SsA6f0GDJw9PbT5GcHnvb4O1GUQrpnKPP5h8xJYwLEm0mkTfWKXwUXpFsF_PHMFeE0nnhCNIw7jSR6mqIbzRAqyR6ts81TIbUiTOel-dPqII79_SUbauyhu_q689VE2QTyMFZtZoP6q2AVKnXDekeOUUIS9bo9WWSrafbn9bYEVaFkKMdQuU4oKXHH-OaSosNhQ0RW2Kxq_XlC2t9EVYxJwU7gr1UN7TddoEEzxh3vi7jO64UkXHvnoxzxYt9BfglPn130hmfx72zcELJewlQ1kpvkpTsefvzBrz_nMQvnq-DAQqd-0x7Bu360T7bI74WdopRXBTfDU1yilNnjxsoSDVZODNTNn58BJ-Zud9csUlW3S1XSoPBMlZNbrnE19erDjlPjoWk8tuGunfA4ZD-F-kXUTSYlBEQr5vSn8kUaqBqPGwkVJz5m00]--></g></svg>